<svg xmlns="http://www.w3.org/2000/svg">
  <symbol id="i-whatsapp" viewBox="0 0 24 24"><path fill="currentColor" d="M12.04 2C6.58 2 2.13 6.45 2.13 11.91c0 1.75.46 3.45 1.32 4.95L2.05 22l5.25-1.38a9.9 9.9 0 0 0 4.74 1.21h.01c5.46 0 9.9-4.45 9.9-9.91A9.86 9.86 0 0 0 12.04 2Zm0 18.15h-.01a8.2 8.2 0 0 1-4.19-1.15l-.3-.18-3.12.82.83-3.04-.2-.31a8.2 8.2 0 0 1-1.26-4.38c0-4.54 3.7-8.24 8.25-8.24a8.2 8.2 0 0 1 8.24 8.25c0 4.54-3.7 8.23-8.24 8.23Zm4.52-6.16c-.25-.12-1.47-.72-1.69-.81-.23-.08-.39-.12-.56.13-.16.24-.64.8-.78.97-.14.17-.29.19-.54.06-.25-.12-1.05-.39-1.99-1.23-.74-.66-1.23-1.47-1.38-1.72-.14-.25-.01-.38.11-.5.11-.11.25-.29.37-.43.13-.15.17-.25.25-.42.08-.16.04-.31-.02-.43-.06-.12-.56-1.34-.76-1.84-.2-.48-.41-.42-.56-.42h-.48a.92.92 0 0 0-.66.31c-.23.25-.87.85-.87 2.07 0 1.22.89 2.4 1.01 2.56.12.17 1.75 2.67 4.24 3.74.59.26 1.05.41 1.41.52.59.19 1.13.16 1.56.1.48-.07 1.47-.6 1.67-1.18.21-.58.21-1.07.15-1.18-.06-.1-.22-.16-.47-.29Z"/></symbol>
  <symbol id="i-phone" viewBox="0 0 24 24"><path fill="none" stroke="currentColor" stroke-width="2" stroke-linecap="round" stroke-linejoin="round" d="M22 16.9v3a2 2 0 0 1-2.2 2 19.8 19.8 0 0 1-8.6-3.1 19.5 19.5 0 0 1-6-6A19.8 19.8 0 0 1 2.1 4.2 2 2 0 0 1 4.1 2h3a2 2 0 0 1 2 1.7c.1 1 .4 1.9.7 2.8a2 2 0 0 1-.5 2.1L8 9.9a16 16 0 0 0 6 6l1.3-1.3a2 2 0 0 1 2.1-.4c.9.3 1.8.6 2.8.7a2 2 0 0 1 1.7 2Z"/></symbol>
  <symbol id="i-mail" viewBox="0 0 24 24"><g fill="none" stroke="currentColor" stroke-width="2" stroke-linecap="round" stroke-linejoin="round"><rect x="2" y="4" width="20" height="16" rx="2"/><path d="m22 7-10 6L2 7"/></g></symbol>
  <symbol id="i-pin" viewBox="0 0 24 24"><g fill="none" stroke="currentColor" stroke-width="2" stroke-linecap="round" stroke-linejoin="round"><path d="M20 10c0 6-8 12-8 12s-8-6-8-12a8 8 0 0 1 16 0Z"/><circle cx="12" cy="10" r="3"/></g></symbol>
  <symbol id="i-bolt" viewBox="0 0 24 24"><path fill="none" stroke="currentColor" stroke-width="2" stroke-linecap="round" stroke-linejoin="round" d="M13 2 3 14h9l-1 8 10-12h-9l1-8Z"/></symbol>
  <symbol id="i-plug" viewBox="0 0 24 24"><g fill="none" stroke="currentColor" stroke-width="2" stroke-linecap="round" stroke-linejoin="round"><path d="M12 22v-5M9 8V2M15 8V2M18 8v5a6 6 0 0 1-12 0V8Z"/></g></symbol>
  <symbol id="i-car" viewBox="0 0 24 24"><g fill="none" stroke="currentColor" stroke-width="2" stroke-linecap="round" stroke-linejoin="round"><path d="M19 17h2c.6 0 1-.4 1-1v-3c0-.9-.7-1.7-1.5-1.9L18 10l-2.7-3.6A2 2 0 0 0 13.7 6H8.4a2 2 0 0 0-1.7 1L5 10l-2.1.6A1.5 1.5 0 0 0 2 12v4c0 .6.4 1 1 1h2"/><circle cx="7" cy="17" r="2"/><circle cx="17" cy="17" r="2"/><path d="M9 17h6"/></g></symbol>
  <symbol id="i-building" viewBox="0 0 24 24"><g fill="none" stroke="currentColor" stroke-width="2" stroke-linecap="round" stroke-linejoin="round"><rect x="4" y="2" width="16" height="20" rx="2"/><path d="M9 22v-4h6v4M8 6h.01M16 6h.01M12 6h.01M12 10h.01M12 14h.01M16 10h.01M16 14h.01M8 10h.01M8 14h.01"/></g></symbol>
  <symbol id="i-home" viewBox="0 0 24 24"><g fill="none" stroke="currentColor" stroke-width="2" stroke-linecap="round" stroke-linejoin="round"><path d="m3 10 9-7 9 7v10a2 2 0 0 1-2 2H5a2 2 0 0 1-2-2Z"/><path d="M9 22V12h6v10"/></g></symbol>
  <symbol id="i-briefcase" viewBox="0 0 24 24"><g fill="none" stroke="currentColor" stroke-width="2" stroke-linecap="round" stroke-linejoin="round"><rect x="2" y="7" width="20" height="14" rx="2"/><path d="M16 21V5a2 2 0 0 0-2-2h-4a2 2 0 0 0-2 2v16"/></g></symbol>
  <symbol id="i-shield" viewBox="0 0 24 24"><g fill="none" stroke="currentColor" stroke-width="2" stroke-linecap="round" stroke-linejoin="round"><path d="M12 22s8-4 8-10V5l-8-3-8 3v7c0 6 8 10 8 10Z"/><path d="m9 12 2 2 4-4"/></g></symbol>
  <symbol id="i-doc" viewBox="0 0 24 24"><g fill="none" stroke="currentColor" stroke-width="2" stroke-linecap="round" stroke-linejoin="round"><path d="M14 2H6a2 2 0 0 0-2 2v16a2 2 0 0 0 2 2h12a2 2 0 0 0 2-2V8Z"/><path d="M14 2v6h6M16 13H8M16 17H8M10 9H8"/></g></symbol>
  <symbol id="i-check" viewBox="0 0 24 24"><path fill="none" stroke="currentColor" stroke-width="2.5" stroke-linecap="round" stroke-linejoin="round" d="M20 6 9 17l-5-5"/></symbol>
  <symbol id="i-clock" viewBox="0 0 24 24"><g fill="none" stroke="currentColor" stroke-width="2" stroke-linecap="round" stroke-linejoin="round"><circle cx="12" cy="12" r="10"/><path d="M12 6v6l4 2"/></g></symbol>
  <symbol id="i-gauge" viewBox="0 0 24 24"><g fill="none" stroke="currentColor" stroke-width="2" stroke-linecap="round" stroke-linejoin="round"><path d="m12 14 4-4M3.3 19a10 10 0 1 1 17.4 0"/></g></symbol>
  <symbol id="i-tools" viewBox="0 0 24 24"><path fill="none" stroke="currentColor" stroke-width="2" stroke-linecap="round" stroke-linejoin="round" d="M14.7 6.3a1 1 0 0 0 0 1.4l1.6 1.6a1 1 0 0 0 1.4 0l3.8-3.8a6 6 0 0 1-7.9 7.9l-6.9 6.9a2.1 2.1 0 0 1-3-3l6.9-6.9a6 6 0 0 1 7.9-7.9Z"/></symbol>
  <symbol id="i-chip" viewBox="0 0 24 24"><g fill="none" stroke="currentColor" stroke-width="2" stroke-linecap="round" stroke-linejoin="round"><rect x="5" y="5" width="14" height="14" rx="2"/><path d="M9 9h6v6H9zM9 1v4M15 1v4M9 19v4M15 19v4M1 9h4M1 15h4M19 9h4M19 15h4"/></g></symbol>
  <symbol id="i-wifi" viewBox="0 0 24 24"><path fill="none" stroke="currentColor" stroke-width="2" stroke-linecap="round" stroke-linejoin="round" d="M5 13a10 10 0 0 1 14 0M8.5 16.5a5 5 0 0 1 7 0M2 8.8a15 15 0 0 1 20 0M12 20h.01"/></symbol>
  <symbol id="i-sun" viewBox="0 0 24 24"><g fill="none" stroke="currentColor" stroke-width="2" stroke-linecap="round" stroke-linejoin="round"><circle cx="12" cy="12" r="4"/><path d="M12 2v2M12 20v2M4.9 4.9l1.4 1.4M17.7 17.7l1.4 1.4M2 12h2M20 12h2M4.9 19.1l1.4-1.4M17.7 6.3l1.4-1.4"/></g></symbol>
  <symbol id="i-arrow" viewBox="0 0 24 24"><path fill="none" stroke="currentColor" stroke-width="2" stroke-linecap="round" stroke-linejoin="round" d="M5 12h14M12 5l7 7-7 7"/></symbol>
  <symbol id="i-menu" viewBox="0 0 24 24"><path fill="none" stroke="currentColor" stroke-width="2" stroke-linecap="round" d="M3 6h18M3 12h18M3 18h18"/></symbol>
  <symbol id="i-close" viewBox="0 0 24 24"><path fill="none" stroke="currentColor" stroke-width="2" stroke-linecap="round" d="M18 6 6 18M6 6l12 12"/></symbol>
  <symbol id="i-instagram" viewBox="0 0 24 24"><g fill="none" stroke="currentColor" stroke-width="2" stroke-linecap="round" stroke-linejoin="round"><rect x="2" y="2" width="20" height="20" rx="5"/><circle cx="12" cy="12" r="4"/><path d="M17.5 6.5h.01"/></g></symbol>
</svg>
